<svg xmlns="http://www.w3.org/2000/svg" width="192.22" height="30" viewBox="0 0 192.22 30">
  <g id="header_logo" transform="translate(-40 -40)">
    <g id="グループ_22" data-name="グループ 22" transform="translate(40 40)">
      <g id="グループ_18" data-name="グループ 18" transform="translate(40.023)">
        <path id="パス_14" data-name="パス 14" d="M183.368,57.476V48.985a.784.784,0,0,0-.784-.784h-2.536a.784.784,0,0,0-.784.784V57.48h0a4.589,4.589,0,0,1-9.177,0V50.1h0V48.985a.784.784,0,0,0-.784-.784h-2.536a.784.784,0,0,0-.784.784V57.48h0a8.692,8.692,0,0,0,17.385,0Z" transform="translate(-80.024 -40)"/>
        <path id="パス_15" data-name="パス 15" d="M101.514,56.317v8.492a.784.784,0,0,0,.783.784h2.537a.784.784,0,0,0,.784-.784V56.314h0a4.588,4.588,0,1,1,9.176,0V63.7h0v1.113a.783.783,0,0,0,.783.784h2.537a.784.784,0,0,0,.784-.784V56.314h0a8.693,8.693,0,1,0-17.385,0Z" transform="translate(-80.024 -40)"/>
        <path id="パス_16" data-name="パス 16" d="M231.826,49.138h0a8.693,8.693,0,0,0-12.6,7.759h0v7.912a.784.784,0,0,0,.784.784h2.536a.784.784,0,0,0,.784-.784v-.522h0V56.9a4.587,4.587,0,0,1,6.452-4.193h0a.784.784,0,0,0,1.07-.292l1.263-2.212A.784.784,0,0,0,231.826,49.138Z" transform="translate(-80.024 -40)"/>
        <path id="パス_17" data-name="パス 17" d="M96.625,58.057a.784.784,0,0,0,.784-.784v-.955a8.692,8.692,0,0,0-17.385,0v1.171a8.69,8.69,0,0,0,14.4,6.55.783.783,0,0,0,0-1.109l-.036-.037-1.709-1.708-.057-.057a.784.784,0,0,0-1.039-.062,4.585,4.585,0,0,1-7.422-3.009ZM84.346,54.922a4.588,4.588,0,0,1,8.741,0Z" transform="translate(-80.024 -40)"/>
        <path id="パス_18" data-name="パス 18" d="M139.6,58.057a.783.783,0,0,0,.783-.784v-.955a8.693,8.693,0,0,0-17.385,0v1.171a8.691,8.691,0,0,0,14.4,6.55.785.785,0,0,0,0-1.109l-.037-.037-1.708-1.708-.058-.057a.783.783,0,0,0-1.039-.062,4.584,4.584,0,0,1-7.421-3.009Zm-12.28-3.135a4.588,4.588,0,0,1,8.741,0Z" transform="translate(-80.024 -40)"/>
        <path id="パス_19" data-name="パス 19" d="M206.431,47.621a8.693,8.693,0,0,0-8.692,8.693v1.17a8.691,8.691,0,0,0,13.286,7.379.782.782,0,0,0,.779.73h2.536a.784.784,0,0,0,.784-.784V56.314A8.693,8.693,0,0,0,206.431,47.621Zm4.589,9.863a4.589,4.589,0,0,1-9.177,0v-1.17a4.589,4.589,0,1,1,9.177,0Z" transform="translate(-80.024 -40)"/>
        <path id="パス_20" data-name="パス 20" d="M191.577,60.221a1.27,1.27,0,0,0,1.268,1.268H194.9a.784.784,0,0,1,.784.783v2.537a.784.784,0,0,1-.784.784h-2.058a5.372,5.372,0,0,1-5.372-5.372V40.784a.784.784,0,0,1,.783-.784h2.537a.784.784,0,0,1,.784.784Z" transform="translate(-80.024 -40)"/>
        <path id="パス_21" data-name="パス 21" d="M153.186,47.621a8.649,8.649,0,0,0-3.805.877.784.784,0,0,1-.784-.784v-6.93a.784.784,0,0,0-.784-.784h-2.536a.784.784,0,0,0-.784.784v15.53h0v1.17a8.693,8.693,0,1,0,17.385,0v-1.17A8.693,8.693,0,0,0,153.186,47.621Zm4.588,9.863a4.589,4.589,0,0,1-9.177,0v-1.17a4.589,4.589,0,1,1,9.177,0Z" transform="translate(-80.024 -40)"/>
      </g>
      <g id="グループ_21" data-name="グループ 21">
        <g id="グループ_19" data-name="グループ 19">
          <path id="パス_22" data-name="パス 22" d="M60.585,64.732A5.265,5.265,0,0,1,70,61.492h0V43.682A3.693,3.693,0,0,0,66.32,40H43.682A3.693,3.693,0,0,0,40,43.682V66.318A3.693,3.693,0,0,0,43.682,70H65.853a5.285,5.285,0,0,1-5.268-5.268Z" transform="translate(-40 -40)" fill="none"/>
        </g>
        <g id="グループ_20" data-name="グループ 20">
          <path id="パス_23" data-name="パス 23" d="M49.695,42.222h-9.39a3.638,3.638,0,0,0-.287,1.111h8.375A14.992,14.992,0,0,1,49.695,42.222Z" transform="translate(-40 -40)" fill="#91b122"/>
          <path id="パス_24" data-name="パス 24" d="M48.4,66.667H40.018a3.638,3.638,0,0,0,.287,1.111h9.4A14.859,14.859,0,0,1,48.4,66.667Z" transform="translate(-40 -40)" fill="#91b122"/>
          <path id="パス_25" data-name="パス 25" d="M43.937,57.778H40v1.111h4.112C44.039,58.523,43.982,58.152,43.937,57.778Z" transform="translate(-40 -40)" fill="#91b122"/>
          <path id="パス_26" data-name="パス 26" d="M43.826,55.992v-.436H40v1.111h3.843C43.833,56.443,43.826,56.218,43.826,55.992Z" transform="translate(-40 -40)" fill="#91b122"/>
          <path id="パス_27" data-name="パス 27" d="M70,44.641v-.959A3.693,3.693,0,0,0,66.32,40H63.26A14.784,14.784,0,0,1,70,44.641Z" transform="translate(-40 -40)" fill="#8c8c8c"/>
          <path id="パス_28" data-name="パス 28" d="M45.205,62.222H40v1.111h5.783Q45.471,62.792,45.205,62.222Z" transform="translate(-40 -40)" fill="#91b122"/>
          <path id="パス_29" data-name="パス 29" d="M44.381,60H40v1.111h4.739C44.6,60.748,44.487,60.376,44.381,60Z" transform="translate(-40 -40)" fill="#91b122"/>
          <path id="パス_30" data-name="パス 30" d="M53.918,40H43.682a3.668,3.668,0,0,0-2.627,1.111H51.4A14.707,14.707,0,0,1,53.918,40Z" transform="translate(-40 -40)" fill="#91b122"/>
          <path id="パス_31" data-name="パス 31" d="M46.488,64.444H40v1.112h7.347Q46.892,65.02,46.488,64.444Z" transform="translate(-40 -40)" fill="#91b122"/>
          <path id="パス_32" data-name="パス 32" d="M58.869,46.212a7.806,7.806,0,0,0-7.423,5.421H66.291A7.8,7.8,0,0,0,58.869,46.212Z" transform="translate(-40 -40)" fill="#8c8c8c"/>
          <path id="パス_33" data-name="パス 33" d="M45.781,46.667H40v1.111h5.2Q45.469,47.208,45.781,46.667Z" transform="translate(-40 -40)" fill="#91b122"/>
          <path id="パス_34" data-name="パス 34" d="M58.589,63.785a7.738,7.738,0,0,0,2.153-.309A5.26,5.26,0,0,1,70,61.492V56.957H50.858A7.8,7.8,0,0,0,58.589,63.785Z" transform="translate(-40 -40)" fill="#8c8c8c"/>
          <path id="パス_35" data-name="パス 35" d="M47.344,44.444H40v1.112h6.485Q46.889,44.979,47.344,44.444Z" transform="translate(-40 -40)" fill="#91b122"/>
          <path id="パス_36" data-name="パス 36" d="M44.737,48.889H40V50h4.38C44.486,49.624,44.6,49.252,44.737,48.889Z" transform="translate(-40 -40)" fill="#91b122"/>
          <path id="パス_37" data-name="パス 37" d="M43.826,54c0-.225.007-.448.017-.671H40v1.111h3.826Z" transform="translate(-40 -40)" fill="#91b122"/>
          <path id="パス_38" data-name="パス 38" d="M44.111,51.111H40v1.111h3.937C43.982,51.848,44.038,51.477,44.111,51.111Z" transform="translate(-40 -40)" fill="#91b122"/>
          <path id="パス_39" data-name="パス 39" d="M41.055,68.889A3.668,3.668,0,0,0,43.682,70H53.93a14.612,14.612,0,0,1-2.524-1.111Z" transform="translate(-40 -40)" fill="#91b122"/>
          <path id="パス_40" data-name="パス 40" d="M70,61.492a5.256,5.256,0,1,0,1.12,3.24A5.254,5.254,0,0,0,70,61.492Z" transform="translate(-40 -40)" fill="#91b122"/>
        </g>
      </g>
    </g>
  </g>
</svg>
