<svg width="264" height="143" viewBox="0 0 264 143" fill="none" xmlns="http://www.w3.org/2000/svg">
<mask id="mask0_171_1134" style="mask-type:luminance" maskUnits="userSpaceOnUse" x="0" y="0" width="264" height="143">
<path d="M264 0H0V143H264V0Z" fill="white"/>
</mask>
<g mask="url(#mask0_171_1134)">
<mask id="mask1_171_1134" style="mask-type:luminance" maskUnits="userSpaceOnUse" x="0" y="0" width="264" height="143">
<path d="M264 0H0V143H264V0Z" fill="white"/>
</mask>
<g mask="url(#mask1_171_1134)">
<path d="M136.119 48.32C144.299 51.79 152.139 55.88 160.629 57.78C164.409 58.41 168.229 58.72 171.989 58.72V37.9H168.849C157.209 37.9 146.489 43.9 136.109 48.32" fill="#DA3D0B"/>
<path d="M111.92 54.94C108.14 54.63 104.37 54.63 100.61 54.63H92V73.75C92 77.2 94.8 80 98.25 80H165.75C169.2 80 172 77.2 172 73.75V71.34C163.84 71.34 155.3 70.29 147.75 67.13C135.81 63.04 124.81 55.25 111.93 54.94" fill="#DA3D0B"/>
<path d="M165.75 0H98.25C94.8 0 92 2.8 92 6.25V41.7C99.55 41.7 107.53 42.01 115.06 41.37C125.44 40.43 134.55 34.75 144.3 30.97C153.1 27.19 162.57 24.97 172 25.29V6.25C172 2.8 169.2 0 165.75 0Z" fill="#DA3D0B"/>
<path d="M172 37.91V25.29C162.57 24.98 153.1 27.19 144.3 30.97C134.55 34.75 125.44 40.43 115.06 41.37C107.52 42.01 99.55 41.69 92 41.69V54.62H100.61C104.37 54.62 108.15 54.62 111.92 54.93C124.81 55.24 135.81 63.03 147.74 67.12C155.29 70.27 163.83 71.33 171.99 71.33V58.71C168.23 58.71 164.4 58.4 160.63 57.77C152.14 55.87 144.29 51.77 136.12 48.31C146.5 43.89 157.22 37.89 168.86 37.89H172V37.91Z" fill="white"/>
<path d="M24.48 100.12H4.52C3.15 100.12 2.05 100.53 1.23 101.35C0.41 102.17 0 103.27 0 104.64V138.54C0 139.96 0.36 140.96 1.1 141.55C1.83 142.14 2.99 142.44 4.59 142.44C5.37 142.44 6.12 142.38 6.85 142.27C7.58 142.16 8.13 142.05 8.49 141.96V125.41H19.96C20.92 125.41 21.67 125.1 22.22 124.48C22.77 123.86 23.04 122.98 23.04 121.84C23.04 121.16 22.94 120.53 22.73 119.96C22.53 119.39 22.31 118.92 22.08 118.56H8.49V107.04H22.29C23.25 107.04 24 106.73 24.55 106.12C25.1 105.5 25.37 104.6 25.37 103.41C25.37 102.73 25.28 102.09 25.1 101.49C24.92 100.9 24.71 100.44 24.48 100.12Z" fill="#DA3D0B"/>
<path d="M34.6604 100.12C33.8804 100.12 33.1504 100.19 32.4704 100.33C31.7904 100.47 31.2604 100.58 30.9004 100.67V138.67C30.9004 140.09 31.2804 141.07 32.0304 141.62C32.7804 142.17 33.9104 142.44 35.4204 142.44C36.2404 142.44 36.9804 142.38 37.6404 142.27C38.3004 142.16 38.8104 142.03 39.1804 141.89V103.95C39.1804 102.53 38.8104 101.54 38.0804 100.97C37.3504 100.4 36.2104 100.12 34.6604 100.12Z" fill="#DA3D0B"/>
<path d="M72.3501 110.8C69.8201 109.38 66.8701 108.68 63.4801 108.68C60.0901 108.68 57.2001 109.39 54.6501 110.8C52.1001 112.22 50.1201 114.2 48.7001 116.76C47.2901 119.32 46.5801 122.35 46.5801 125.87C46.5801 129.39 47.2801 132.42 48.6701 134.98C50.0601 137.54 52.0301 139.51 54.5801 140.9C57.1301 142.29 60.1001 142.99 63.4801 142.99C66.8601 142.99 69.8901 142.29 72.4201 140.9C74.9501 139.51 76.9101 137.52 78.3001 134.94C79.6901 132.36 80.3901 129.34 80.3901 125.87C80.3901 122.4 79.6801 119.32 78.2701 116.76C76.8601 114.2 74.8901 112.22 72.3601 110.8M69.6001 133.64C68.1201 135.49 66.0801 136.41 63.4801 136.41C60.8801 136.41 58.8401 135.5 57.3601 133.67C55.8801 131.84 55.1301 129.24 55.1301 125.86C55.1301 122.48 55.8801 119.93 57.3901 118.05C58.9001 116.18 60.9201 115.24 63.4801 115.24C66.0401 115.24 68.1201 116.18 69.6001 118.05C71.0801 119.92 71.8301 122.52 71.8301 125.86C71.8301 129.2 71.0901 131.78 69.6001 133.63" fill="#DA3D0B"/>
<path d="M162.41 100.12H142.45C141.08 100.12 139.98 100.53 139.16 101.35C138.34 102.17 137.93 103.27 137.93 104.64V138.54C137.93 139.96 138.29 140.96 139.03 141.55C139.76 142.14 140.92 142.44 142.52 142.44C143.3 142.44 144.05 142.38 144.78 142.27C145.51 142.16 146.06 142.05 146.42 141.96V125.41H157.89C158.85 125.41 159.6 125.1 160.15 124.48C160.7 123.86 160.97 122.98 160.97 121.84C160.97 121.16 160.87 120.53 160.66 119.96C160.45 119.39 160.24 118.92 160.01 118.56H146.42V107.04H160.22C161.18 107.04 161.93 106.73 162.48 106.12C163.03 105.5 163.3 104.6 163.3 103.41C163.3 102.73 163.21 102.09 163.03 101.49C162.85 100.9 162.64 100.44 162.41 100.12Z" fill="#DA3D0B"/>
<path d="M130.281 109.78C129.551 109.28 128.611 109.03 127.471 109.03C126.101 109.03 124.871 109.35 123.771 109.99C123.181 114.19 122.441 118.44 121.541 122.73C120.651 127.02 119.791 131.06 118.971 134.85H118.631C118.401 133.8 117.981 132.2 117.361 130.06C116.741 127.92 116.031 125.46 115.201 122.7C114.381 119.94 113.511 117.1 112.601 114.17C112.331 113.35 111.791 112.74 110.991 112.36C110.201 111.97 109.201 111.78 108.021 111.78C107.101 111.78 106.301 111.87 105.621 112.05C104.931 112.23 104.301 112.51 103.701 112.87C102.781 115.93 101.891 118.94 101.001 121.91C100.111 124.88 99.3305 127.52 98.6705 129.82C98.0105 132.13 97.5406 133.8 97.2606 134.85H96.9905C96.8105 134.12 96.5505 133.06 96.2405 131.67C95.9205 130.28 95.5606 128.62 95.1506 126.71C94.7406 124.79 94.3105 122.65 93.8805 120.27C93.4505 117.9 93.0306 115.41 92.6206 112.81C92.3906 111.44 91.9305 110.47 91.2505 109.9C90.5605 109.33 89.6306 109.05 88.4406 109.05C87.4806 109.05 86.6206 109.23 85.8706 109.6C85.1206 109.97 84.5105 110.38 84.0605 110.83C84.3805 112.56 84.7806 114.55 85.2606 116.79C85.7406 119.03 86.2606 121.33 86.8306 123.71C87.4006 126.09 87.9706 128.38 88.5406 130.59C89.1106 132.8 89.6706 134.76 90.2206 136.44C90.7706 138.13 91.2506 139.43 91.6606 140.34C92.0206 141.07 92.6906 141.63 93.6506 142.02C94.6106 142.41 95.7106 142.6 96.9406 142.6C98.0306 142.6 98.9605 142.49 99.7105 142.26C100.461 142.03 101.071 141.74 101.531 141.37C102.081 139.86 102.731 137.98 103.481 135.72C104.231 133.46 105.011 131.02 105.811 128.39C106.611 125.77 107.331 123.2 107.971 120.69C108.661 123.16 109.361 125.65 110.091 128.19C110.821 130.72 111.541 133.08 112.251 135.24C112.961 137.41 113.591 139.18 114.141 140.55C114.591 141.92 116.221 142.6 119.001 142.6C120.051 142.6 121.021 142.47 121.911 142.22C122.801 141.97 123.451 141.68 123.861 141.37C124.221 140.46 124.651 139.22 125.161 137.67C125.661 136.12 126.201 134.36 126.771 132.4C127.341 130.44 127.901 128.41 128.451 126.31C129.001 124.21 129.481 122.22 129.921 120.35C130.351 118.48 130.711 116.82 130.981 115.39C131.251 113.95 131.391 112.94 131.391 112.34C131.391 111.15 131.031 110.31 130.301 109.81" fill="#DA3D0B"/>
<path d="M191.979 109.16C191.209 109.16 190.469 109.23 189.789 109.37C189.099 109.51 188.579 109.62 188.209 109.71V134.98C187.659 135.3 186.889 135.61 185.879 135.9C184.869 136.2 183.639 136.34 182.179 136.34C179.899 136.34 178.109 135.8 176.839 134.73C175.559 133.66 174.919 131.91 174.919 129.49V113.06C174.919 111.55 174.559 110.53 173.859 109.98C173.149 109.43 172.019 109.16 170.469 109.16C169.649 109.16 168.899 109.23 168.209 109.37C167.529 109.51 167.019 109.62 166.699 109.71V129.64C166.699 132.75 167.319 135.28 168.549 137.24C169.779 139.2 171.559 140.64 173.889 141.55C176.219 142.46 178.959 142.92 182.109 142.92C184.709 142.92 187.019 142.66 189.029 142.13C191.039 141.61 192.679 140.95 193.959 140.18C194.919 139.59 195.579 138.95 195.949 138.26C196.309 137.58 196.499 136.71 196.499 135.66V113.06C196.499 111.55 196.129 110.53 195.399 109.98C194.669 109.43 193.529 109.16 191.969 109.16" fill="#DA3D0B"/>
<path d="M218.01 122.66L214.45 121.77C213.03 121.45 212.03 121.01 211.44 120.43C210.85 119.86 210.55 119.19 210.55 118.41C210.55 117.31 211.07 116.48 212.12 115.91C213.17 115.34 214.58 115.05 216.37 115.05C217.56 115.05 218.73 115.18 219.9 115.43C221.06 115.68 222.13 116 223.08 116.39C224.04 116.78 224.79 117.16 225.34 117.52C225.84 117.16 226.26 116.68 226.61 116.08C226.95 115.49 227.12 114.8 227.12 114.03C227.12 112.89 226.63 111.92 225.65 111.12C224.67 110.32 223.32 109.71 221.61 109.27C219.9 108.84 217.95 108.62 215.76 108.62C211.56 108.62 208.3 109.54 205.97 111.39C203.64 113.24 202.48 115.58 202.48 118.41C202.48 120.97 203.27 123.02 204.84 124.57C206.42 126.12 208.85 127.26 212.13 128L216.17 129.02C217.63 129.34 218.7 129.81 219.39 130.42C220.08 131.03 220.42 131.87 220.42 132.92C220.42 135.34 218.46 136.55 214.53 136.55C212.38 136.55 210.47 136.22 208.78 135.56C207.09 134.9 205.61 134.16 204.33 133.33C203.74 133.74 203.26 134.27 202.89 134.91C202.53 135.55 202.34 136.26 202.34 137.03C202.34 138.81 203.5 140.25 205.83 141.34C208.16 142.44 211.15 142.98 214.8 142.98C219.27 142.98 222.68 142.08 225.04 140.27C227.39 138.47 228.57 135.99 228.57 132.84C228.57 130.19 227.74 128.04 226.07 126.37C224.4 124.7 221.72 123.46 218.03 122.64" fill="#DA3D0B"/>
<path d="M263.04 125.71C263.68 125.09 264 124.15 264 122.87C264 120.13 263.36 117.69 262.08 115.54C260.8 113.39 259.03 111.71 256.77 110.47C254.51 109.24 251.9 108.62 248.93 108.62C246.74 108.62 244.67 108.97 242.73 109.68C240.79 110.39 239.08 111.45 237.59 112.86C236.11 114.28 234.94 116.03 234.1 118.13C233.26 120.23 232.83 122.67 232.83 125.46C232.83 129.29 233.58 132.51 235.09 135.11C236.6 137.71 238.71 139.66 241.42 140.96C244.14 142.26 247.25 142.91 250.77 142.91C253.05 142.91 255.07 142.68 256.83 142.22C258.59 141.77 259.99 141.11 261.04 140.27C262.09 139.43 262.62 138.43 262.62 137.29C262.62 136.56 262.43 135.89 262.04 135.27C261.65 134.65 261.16 134.16 260.57 133.8C259.57 134.48 258.25 135.11 256.63 135.69C255.01 136.26 253.24 136.54 251.32 136.54C248.44 136.54 246.07 135.83 244.2 134.42C242.72 133.3 241.7 131.69 241.14 129.6L260.36 126.82C261.5 126.68 262.39 126.31 263.03 125.69M240.61 123.82C240.75 121.07 241.55 118.92 243.01 117.39C244.59 115.75 246.56 114.92 248.93 114.92C251.3 114.92 252.97 115.57 254.2 116.87C255.43 118.17 256.12 119.71 256.25 121.49L240.6 123.81L240.61 123.82Z" fill="#DA3D0B"/>
</g>
</g>
</svg>
