<?xml version="1.0" encoding="UTF-8"?> <svg xmlns="http://www.w3.org/2000/svg" width="166" height="32" viewBox="0 0 166 32" fill="none"> <path d="M50.8383 8.07875V21.6741C50.8383 21.8427 50.7192 21.955 50.5404 21.955H46.966C46.7872 21.955 46.6681 21.8427 46.6681 21.6741V16.7866C46.6681 16.618 46.5489 16.5057 46.3702 16.5057H42.4681C42.2894 16.5057 42.1702 16.618 42.1702 16.7866V21.646C42.1702 21.8146 42.0511 21.9269 41.8723 21.9269H38.2979C38.1191 21.9269 38 21.8146 38 21.646V8.07875C38 7.91022 38.1191 7.79785 38.2979 7.79785H41.8723C42.0511 7.79785 42.1702 7.91022 42.1702 8.07875V12.6293C42.1702 12.7978 42.2894 12.9102 42.4681 12.9102H46.3702C46.5489 12.9102 46.6681 12.7978 46.6681 12.6293V8.07875C46.6681 7.91022 46.7872 7.79785 46.966 7.79785H50.5404C50.7192 7.79785 50.8383 7.91022 50.8383 8.07875Z" fill="#333333"></path> <path d="M65.9101 11.3084V21.6735C65.9101 21.8421 65.791 21.9544 65.6122 21.9544H63.0207C62.9016 21.9544 62.7825 21.8982 62.7527 21.7858L62.6335 21.5049C62.574 21.3364 62.3356 21.2802 62.1867 21.3926C61.293 21.9825 60.1909 22.3195 58.9995 22.3195C55.4548 22.3195 52.9229 19.8758 52.9229 16.4769C52.9229 13.1061 55.4548 10.6904 58.9995 10.6904C60.2208 10.6904 61.3527 11.0275 62.2462 11.6455C62.3952 11.7578 62.6037 11.7017 62.693 11.5331L62.8718 11.168C62.9314 11.0556 63.0207 10.9994 63.1399 10.9994H65.6122C65.7612 11.0275 65.9101 11.1399 65.9101 11.3084ZM62.0974 16.505C62.0974 15.0724 60.9953 14.005 59.5058 14.005C58.0165 14.005 56.9144 15.0724 56.9144 16.505C56.9144 17.9375 58.0165 19.0049 59.5058 19.0049C60.9953 19.0049 62.0974 17.9375 62.0974 16.505Z" fill="#333333"></path> <path d="M80.2093 15.2971V21.6735C80.2093 21.8421 80.0901 21.9543 79.9114 21.9543H76.5156C76.3369 21.9543 76.2179 21.8421 76.2179 21.6735V15.8028C76.2179 14.5387 75.7114 13.8927 74.6987 13.8927C73.4476 13.8927 72.7327 14.7073 72.7327 16.1117V21.6735C72.7327 21.8421 72.6136 21.9543 72.4349 21.9543H69.0391C68.8604 21.9543 68.7412 21.8421 68.7412 21.6735V11.3084C68.7412 11.1399 68.8604 11.0275 69.0391 11.0275H71.3625C71.4816 11.0275 71.571 11.0837 71.6305 11.196L71.9284 11.7859C72.0178 11.9545 72.2561 12.0107 72.405 11.8702C73.2391 11.1399 74.4306 10.6904 75.771 10.6904C78.4519 10.7185 80.2093 12.5163 80.2093 15.2971Z" fill="#333333"></path> <path d="M109.877 11.0281C110.085 11.0281 110.234 11.2247 110.145 11.4213L105.468 21.4494C103.92 24.7921 102.46 25.9999 99.4812 25.9999H98.4089C98.2301 25.9999 98.111 25.8875 98.111 25.719V23.0505C98.111 22.8819 98.2301 22.7695 98.4089 22.7695H99.2131C100.702 22.7695 101.179 22.4044 101.685 21.1403C101.715 21.0842 101.715 20.9999 101.685 20.9157L97.128 11.3933C97.0387 11.1966 97.1876 11 97.3961 11H101.06C101.179 11 101.298 11.0843 101.328 11.1685L103.413 16.309C103.503 16.5618 103.89 16.5618 103.979 16.309L105.915 11.1966C105.945 11.0843 106.064 11 106.183 11H109.877V11.0281Z" fill="#333333"></path> <path d="M129.179 11.2811V21.6461C129.179 21.8147 129.059 21.927 128.881 21.927H126.289C126.17 21.927 126.051 21.8709 126.021 21.7585L125.902 21.4776C125.843 21.3091 125.604 21.2529 125.455 21.3652C124.562 21.9552 123.459 22.2922 122.268 22.2922C118.723 22.2922 116.191 19.8484 116.191 16.4495C116.191 13.0788 118.723 10.6631 122.268 10.6631C123.489 10.6631 124.621 11.0002 125.515 11.6181C125.664 11.7305 125.872 11.6743 125.962 11.5058L126.14 11.1406C126.2 11.0283 126.289 10.9721 126.408 10.9721H128.881C129.03 11.0002 129.179 11.1406 129.179 11.2811ZM125.366 16.4776C125.366 15.0451 124.264 13.9777 122.774 13.9777C121.285 13.9777 120.183 15.0451 120.183 16.4776C120.183 17.9102 121.285 18.9776 122.774 18.9776C124.264 18.9776 125.366 17.9102 125.366 16.4776Z" fill="#333333"></path> <path d="M132.307 11.0283H135.702C135.881 11.0283 136 11.1407 136 11.3092V21.6743C136 21.8428 135.881 21.9552 135.702 21.9552H132.307C132.128 21.9552 132.009 21.8428 132.009 21.6743V11.3092C132.009 11.1407 132.158 11.0283 132.307 11.0283Z" fill="#333333"></path> <path d="M112.11 22.1516C113.179 22.1516 114.046 21.3342 114.046 20.3259C114.046 19.3175 113.179 18.5 112.11 18.5C111.041 18.5 110.174 19.3175 110.174 20.3259C110.174 21.3342 111.041 22.1516 112.11 22.1516Z" fill="#333333"></path> <path d="M134.005 9.65166C135.074 9.65166 135.941 8.8342 135.941 7.82583C135.941 6.81745 135.074 6 134.005 6C132.935 6 132.068 6.81745 132.068 7.82583C132.068 8.8342 132.935 9.65166 134.005 9.65166Z" fill="#333333"></path> <path d="M95.1615 7.82583C95.1317 6.8146 94.268 6 93.1956 6C92.1232 6 91.2892 6.8146 91.2595 7.82583C91.2595 7.82583 91.2892 7.82583 91.2892 7.85391V10.9719C91.2892 11.1685 91.0211 11.3089 90.8424 11.2247C90.0977 10.8876 89.2637 10.691 88.37 10.691C84.8254 10.691 82.2637 13.1067 82.2637 16.5055C82.2637 19.9044 84.7956 22.3482 88.3403 22.3482C89.5616 22.3482 90.6339 22.0111 91.5275 21.3932C91.6764 21.2808 91.885 21.3369 91.9743 21.5055L92.1232 21.7584C92.1828 21.8706 92.2722 21.8706 92.3914 21.8706H94.8636C95.0424 21.8706 95.1317 21.8706 95.1317 21.7021L95.1615 7.82583ZM88.9062 18.9775C87.4168 18.9775 86.3147 17.9101 86.3147 16.4775C86.3147 15.0449 87.4168 13.9775 88.9062 13.9775C90.3956 13.9775 91.4977 15.0449 91.4977 16.4775C91.4977 17.9101 90.3956 18.9775 88.9062 18.9775Z" fill="#333333"></path> <circle cx="16" cy="16" r="12" fill="url(#paint0_linear)"></circle> <defs> <linearGradient id="paint0_linear" x1="28" y1="16" x2="4" y2="28" gradientUnits="userSpaceOnUse"> <stop stop-color="#00A8FF"></stop> <stop offset="1" stop-color="#BDFF00"></stop> </linearGradient> </defs> </svg> 