<svg xmlns="http://www.w3.org/2000/svg" viewBox="0 0 413.42 414.13"><defs><style>.cls-1{fill:#006ec3;}.cls-2{fill:#fff;}</style></defs><g id="Layer_2" data-name="Layer 2"><g id="Layer_1-2" data-name="Layer 1"><rect class="cls-1" width="413.42" height="413.42"/><path class="cls-2" d="M297.4,271.82H107.65a55.3,55.3,0,0,1-55.24-55.24v-5.73a55.3,55.3,0,0,1,55.24-55.24H297.4a55.3,55.3,0,0,1,55.24,55.24v5.73A55.3,55.3,0,0,1,297.4,271.82ZM107.65,177.31a33.58,33.58,0,0,0-33.54,33.54v5.73a33.58,33.58,0,0,0,33.54,33.54H297.4a33.58,33.58,0,0,0,33.54-33.54v-5.73a33.58,33.58,0,0,0-33.54-33.54Z"/><rect class="cls-2" x="81.44" y="256.26" width="20.95" height="157.82" transform="matrix(1, 0, 0, 1, -1.56, 0.43)"/><rect class="cls-2" x="299.74" width="20.95" height="165.84"/></g></g></svg>