<?xml version="1.0" encoding="UTF-8" standalone="no"?>
<!-- Created with Inkscape (http://www.inkscape.org/) -->

<svg
   xmlns:dc="http://purl.org/dc/elements/1.1/"
   xmlns:cc="http://creativecommons.org/ns#"
   xmlns:rdf="http://www.w3.org/1999/02/22-rdf-syntax-ns#"
   xmlns:svg="http://www.w3.org/2000/svg"
   xmlns="http://www.w3.org/2000/svg"
   xmlns:sodipodi="http://sodipodi.sourceforge.net/DTD/sodipodi-0.dtd"
   xmlns:inkscape="http://www.inkscape.org/namespaces/inkscape"
   id="svg3475"
   version="1.1"
   inkscape:version="0.91 r13725"
   xml:space="preserve"
   width="88.945877"
   height="54.229252"
   viewBox="0 0 88.945877 54.229252"
   sodipodi:docname="LogoPLusTextNoBackground.svg"
   inkscape:export-filename="C:\Users\Simon\Documents\LogoPLusTextNoBackground-h32.png"
   inkscape:export-xdpi="53.107872"
   inkscape:export-ydpi="53.107872"><metadata
     id="metadata3481"><rdf:RDF><cc:Work
         rdf:about=""><dc:format>image/svg+xml</dc:format><dc:type
           rdf:resource="http://purl.org/dc/dcmitype/StillImage" /><dc:title></dc:title></cc:Work></rdf:RDF></metadata><defs
     id="defs3479"><clipPath
       clipPathUnits="userSpaceOnUse"
       id="clipPath3489"><path
         d="M 0,300 300,300 300,0 0,0 0,300 Z"
         id="path3491"
         inkscape:connector-curvature="0" /></clipPath><clipPath
       clipPathUnits="userSpaceOnUse"
       id="clipPath3625"><path
         d="M 0,300 300,300 300,0 0,0 0,300 Z"
         id="path3627"
         inkscape:connector-curvature="0" /></clipPath></defs><sodipodi:namedview
     pagecolor="#ffffff"
     bordercolor="#666666"
     borderopacity="1"
     objecttolerance="10"
     gridtolerance="10"
     guidetolerance="10"
     inkscape:pageopacity="0"
     inkscape:pageshadow="2"
     inkscape:window-width="1138"
     inkscape:window-height="653"
     id="namedview3477"
     showgrid="false"
     inkscape:zoom="2.5173333"
     inkscape:cx="-36.284822"
     inkscape:cy="55.681715"
     inkscape:window-x="1383"
     inkscape:window-y="45"
     inkscape:window-maximized="0"
     inkscape:current-layer="g3483"
     fit-margin-top="0"
     fit-margin-left="0"
     fit-margin-right="0"
     fit-margin-bottom="0" /><g
     id="g3483"
     inkscape:groupmode="layer"
     inkscape:label="Final logo Decisions"
     transform="matrix(1.25,0,0,-1.25,-135.21687,255.21687)"><g
       id="g3629"
       transform="translate(114.8935,169.5501)"><path
         d="m 0,0 0,-5.69 c 0,-0.54 -0.11,-1.03 -0.33,-1.47 -0.21,-0.43 -0.52,-0.79 -0.9,-1.05 -0.39,-0.27 -0.84,-0.44 -1.35,-0.51 -0.16,-0.03 -0.33,-0.04 -0.5,-0.04 -0.36,0 -0.74,0.05 -1.14,0.16 -0.24,0.07 -0.34,0.21 -0.38,0.32 -0.05,0.14 -0.05,0.29 0.02,0.42 0.06,0.13 0.17,0.22 0.3,0.26 0.13,0.04 0.27,0.03 0.39,-0.04 0.33,-0.1 0.7,-0.14 1.05,-0.1 0.35,0.04 0.67,0.14 0.94,0.31 0.26,0.17 0.48,0.4 0.65,0.69 0.16,0.29 0.24,0.64 0.24,1.05 l 0,0.56 c -0.18,-0.19 -0.39,-0.36 -0.63,-0.51 -0.26,-0.17 -0.55,-0.3 -0.86,-0.4 -0.74,-0.22 -1.59,-0.18 -2.27,0.12 -0.4,0.18 -0.74,0.42 -1.03,0.73 -0.28,0.3 -0.51,0.66 -0.67,1.07 -0.16,0.4 -0.25,0.84 -0.25,1.3 l 0,2.82 c 0,0.33 0.21,0.54 0.52,0.54 0.33,0 0.52,-0.21 0.52,-0.54 l 0,-2.82 c 0,-0.33 0.06,-0.65 0.16,-0.94 0.11,-0.29 0.26,-0.55 0.45,-0.76 0.19,-0.21 0.42,-0.38 0.69,-0.5 0.53,-0.25 1.23,-0.25 1.82,0 0.3,0.12 0.57,0.3 0.79,0.51 0.23,0.22 0.41,0.48 0.54,0.77 0.13,0.29 0.19,0.6 0.19,0.92 l 0,2.82 c 0,0.33 0.2,0.54 0.52,0.54 C -0.2,0.54 0,0.33 0,0"
         style="fill:#e3ca1a;fill-opacity:1;fill-rule:nonzero;stroke:none"
         id="path3631"
         inkscape:connector-curvature="0" /></g><g
       id="g3633"
       transform="translate(116.5452,167.2301)"><path
         d="m 0,0 c 0.05,0.2 0.12,0.4 0.21,0.58 0.13,0.26 0.31,0.49 0.53,0.68 0.22,0.2 0.47,0.35 0.75,0.47 0.55,0.22 1.21,0.22 1.74,0 C 3.5,1.62 3.73,1.46 3.92,1.27 4.12,1.08 4.28,0.85 4.4,0.59 4.48,0.41 4.54,0.21 4.58,0 L 0,0 Z M 5.39,0.84 C 5.22,1.24 4.99,1.6 4.7,1.9 4.41,2.2 4.06,2.44 3.66,2.61 2.87,2.95 1.89,2.95 1.06,2.64 0.64,2.48 0.26,2.25 -0.05,1.96 -0.37,1.67 -0.63,1.31 -0.81,0.9 -1,0.48 -1.09,0.01 -1.09,-0.5 c 0,-0.46 0.09,-0.9 0.26,-1.31 0.18,-0.4 0.42,-0.76 0.73,-1.06 0.3,-0.3 0.66,-0.54 1.06,-0.71 0.41,-0.18 0.85,-0.27 1.31,-0.27 0.26,0 0.52,0.03 0.75,0.08 0.22,0.05 0.44,0.12 0.63,0.2 0.18,0.08 0.36,0.17 0.51,0.27 0.15,0.09 0.28,0.19 0.4,0.29 0.15,0.15 0.16,0.3 0.15,0.41 -0.01,0.12 -0.06,0.23 -0.15,0.33 -0.19,0.2 -0.54,0.2 -0.73,0 -0.2,-0.19 -0.44,-0.34 -0.71,-0.45 -0.58,-0.21 -1.2,-0.2 -1.72,0.01 -0.27,0.12 -0.51,0.27 -0.71,0.46 -0.21,0.2 -0.38,0.43 -0.51,0.69 -0.09,0.18 -0.16,0.37 -0.2,0.58 l 5.11,0 c 0.21,0 0.33,0.08 0.4,0.15 0.1,0.1 0.15,0.22 0.15,0.35 0,0.47 -0.08,0.91 -0.25,1.32"
         style="fill:#e3ca1a;fill-opacity:1;fill-rule:nonzero;stroke:none"
         id="path3635"
         inkscape:connector-curvature="0" /></g><g
       id="g3637"
       transform="translate(123.7002,171.4702)"><path
         d="m 0,0 0,-7.58 c 0,-0.14 -0.05,-0.26 -0.15,-0.36 -0.1,-0.1 -0.22,-0.15 -0.36,-0.15 -0.13,0 -0.25,0.05 -0.35,0.15 -0.1,0.1 -0.15,0.22 -0.15,0.36 l 0,7.58 c 0,0.13 0.05,0.26 0.15,0.35 0.2,0.2 0.51,0.2 0.71,0.01 C -0.05,0.26 0,0.13 0,0"
         style="fill:#e3ca1a;fill-opacity:1;fill-rule:nonzero;stroke:none"
         id="path3639"
         inkscape:connector-curvature="0" /></g><g
       id="g3641"
       transform="translate(125.2302,171.4702)"><path
         d="m 0,0 0,-7.58 c 0,-0.14 -0.05,-0.26 -0.15,-0.36 -0.1,-0.1 -0.22,-0.15 -0.36,-0.15 -0.13,0 -0.25,0.05 -0.35,0.15 -0.1,0.1 -0.15,0.22 -0.15,0.36 l 0,7.58 c 0,0.13 0.05,0.26 0.14,0.35 0.21,0.2 0.52,0.2 0.72,0.01 C -0.05,0.26 0,0.13 0,0"
         style="fill:#e3ca1a;fill-opacity:1;fill-rule:nonzero;stroke:none"
         id="path3643"
         inkscape:connector-curvature="0" /></g><g
       id="g3645"
       transform="translate(131.1102,165.8102)"><path
         d="m 0,0 c -0.13,-0.29 -0.31,-0.55 -0.53,-0.77 -0.22,-0.21 -0.48,-0.39 -0.78,-0.51 -0.59,-0.25 -1.29,-0.25 -1.82,0 -0.27,0.12 -0.5,0.29 -0.69,0.5 -0.19,0.22 -0.34,0.47 -0.45,0.76 -0.1,0.29 -0.16,0.61 -0.16,0.94 0,0.33 0.06,0.64 0.16,0.93 0.11,0.29 0.26,0.55 0.45,0.76 0.19,0.22 0.42,0.39 0.68,0.51 0.27,0.12 0.57,0.18 0.89,0.18 0.32,0 0.62,-0.06 0.92,-0.19 0.29,-0.13 0.56,-0.3 0.78,-0.52 C -0.32,2.37 -0.14,2.11 0,1.82 0.13,1.53 0.2,1.23 0.2,0.92 0.2,0.6 0.13,0.29 0,0 M 0.85,4.26 C 0.71,4.26 0.47,4.22 0.33,3.89 0.27,3.73 0.23,3.5 0.23,3.2 0.07,3.35 -0.1,3.51 -0.31,3.65 -0.56,3.83 -0.86,3.98 -1.18,4.09 -1.91,4.36 -2.82,4.33 -3.54,4.01 -3.93,3.84 -4.28,3.59 -4.56,3.29 -4.85,2.98 -5.08,2.62 -5.24,2.22 -5.4,1.81 -5.48,1.38 -5.48,0.92 c 0,-0.46 0.08,-0.9 0.24,-1.3 0.16,-0.41 0.39,-0.77 0.68,-1.07 0.28,-0.31 0.63,-0.55 1.02,-0.73 0.39,-0.17 0.83,-0.26 1.29,-0.26 0.34,0 0.68,0.05 1,0.15 0.31,0.1 0.6,0.24 0.86,0.4 0.23,0.15 0.44,0.32 0.62,0.51 0,-0.3 0.04,-0.52 0.1,-0.68 0.14,-0.32 0.38,-0.37 0.52,-0.37 0.23,0 0.39,0.16 0.39,0.39 l 0,5.91 c 0,0.23 -0.16,0.39 -0.39,0.39"
         style="fill:#e3ca1a;fill-opacity:1;fill-rule:nonzero;stroke:none"
         id="path3647"
         inkscape:connector-curvature="0" /></g><g
       id="g3649"
       transform="translate(139.8302,171.4702)"><path
         d="M 0,0 0,-4.7 C 0,-5.19 -0.09,-5.63 -0.26,-6.04 -0.44,-6.44 -0.68,-6.8 -0.98,-7.1 -1.29,-7.41 -1.65,-7.65 -2.06,-7.82 -2.47,-8 -2.91,-8.09 -3.38,-8.09 c -0.47,0 -0.91,0.09 -1.32,0.27 -0.41,0.17 -0.76,0.41 -1.07,0.72 -0.3,0.3 -0.55,0.66 -0.72,1.06 -0.17,0.41 -0.26,0.85 -0.26,1.32 l 0,4.72 c 0,0.01 0,0.02 -0.01,0.03 -0.02,0.07 -0.02,0.16 0.01,0.23 0.03,0.1 0.1,0.17 0.21,0.21 0.07,0.02 0.15,0.04 0.27,0.04 0.2,0 0.33,-0.09 0.39,-0.16 0.09,-0.1 0.14,-0.22 0.14,-0.35 l 0,-4.7 c 0,-0.35 0.06,-0.66 0.19,-0.95 0.12,-0.28 0.29,-0.53 0.5,-0.75 0.21,-0.21 0.47,-0.38 0.75,-0.5 0.57,-0.23 1.27,-0.23 1.84,0 0.28,0.12 0.53,0.29 0.75,0.5 0.21,0.22 0.38,0.47 0.51,0.76 0.13,0.28 0.19,0.59 0.19,0.91 l 0,4.73 c -0.03,0.1 -0.03,0.19 0,0.26 0.03,0.1 0.11,0.17 0.22,0.21 0.06,0.02 0.14,0.04 0.26,0.04 0.21,0 0.33,-0.09 0.4,-0.16 C -0.04,0.25 0,0.13 0,0"
         style="fill:#2e2b2b;fill-opacity:1;fill-rule:nonzero;stroke:none"
         id="path3651"
         inkscape:connector-curvature="0" /></g><g
       id="g3653"
       transform="translate(150.1202,166.7401)"><path
         d="m 0,0 0,-2.84 c 0,-0.14 -0.05,-0.26 -0.14,-0.36 -0.09,-0.1 -0.22,-0.16 -0.37,-0.16 -0.15,0 -0.27,0.06 -0.37,0.16 -0.09,0.1 -0.14,0.22 -0.14,0.36 l 0,2.83 c 0,0.34 -0.02,0.68 -0.05,0.99 C -1.11,1.27 -1.18,1.53 -1.29,1.74 -1.38,1.94 -1.52,2.09 -1.71,2.2 -2.07,2.43 -2.8,2.43 -3.23,2.19 -3.45,2.07 -3.64,1.9 -3.78,1.7 -3.93,1.49 -4.04,1.24 -4.12,0.95 -4.19,0.66 -4.23,0.33 -4.24,-0.01 l 0,-2.83 c 0,-0.14 -0.05,-0.26 -0.14,-0.36 -0.19,-0.21 -0.55,-0.21 -0.74,0 -0.09,0.1 -0.14,0.22 -0.14,0.36 l 0,2.83 c 0,0.35 -0.01,0.68 -0.05,0.99 -0.04,0.29 -0.11,0.55 -0.21,0.76 -0.1,0.2 -0.23,0.35 -0.41,0.46 C -6.28,2.42 -7.01,2.43 -7.46,2.18 -7.69,2.06 -7.88,1.89 -8.03,1.67 -8.18,1.46 -8.3,1.2 -8.37,0.91 -8.45,0.61 -8.49,0.29 -8.49,-0.04 l 0,-2.8 c 0,-0.14 -0.05,-0.26 -0.14,-0.36 -0.19,-0.21 -0.55,-0.21 -0.74,0 -0.09,0.1 -0.14,0.22 -0.14,0.36 l 0,5.8 c 0,0.23 0.16,0.39 0.39,0.39 0.14,0 0.38,-0.05 0.52,-0.38 0.03,-0.09 0.06,-0.2 0.08,-0.33 0.07,0.06 0.14,0.13 0.22,0.19 0.2,0.16 0.44,0.28 0.72,0.38 0.28,0.09 0.61,0.14 0.98,0.14 0.63,-0.01 1.13,-0.19 1.49,-0.52 0.2,-0.19 0.36,-0.41 0.49,-0.66 0.12,0.2 0.27,0.39 0.47,0.56 0.21,0.17 0.46,0.32 0.75,0.44 0.29,0.12 0.64,0.18 1.03,0.18 0.46,0 0.85,-0.1 1.17,-0.28 C -0.89,2.88 -0.64,2.63 -0.46,2.32 -0.28,2.01 -0.16,1.65 -0.1,1.25 -0.03,0.86 0,0.44 0,0"
         style="fill:#2e2b2b;fill-opacity:1;fill-rule:nonzero;stroke:none"
         id="path3655"
         inkscape:connector-curvature="0" /></g><g
       id="g3657"
       transform="translate(156.6302,165.7902)"><path
         d="m 0,0 c -0.11,-0.29 -0.26,-0.54 -0.45,-0.76 -0.19,-0.21 -0.42,-0.38 -0.69,-0.5 -0.53,-0.25 -1.23,-0.25 -1.82,0 -0.3,0.12 -0.56,0.3 -0.78,0.51 -0.22,0.22 -0.4,0.48 -0.53,0.77 -0.13,0.29 -0.2,0.59 -0.2,0.92 0,0.31 0.07,0.61 0.2,0.9 0.14,0.29 0.32,0.55 0.55,0.77 0.22,0.22 0.48,0.39 0.78,0.52 0.29,0.13 0.6,0.19 0.92,0.19 0.32,0 0.62,-0.06 0.88,-0.18 0.27,-0.12 0.5,-0.29 0.69,-0.51 C -0.26,2.42 -0.11,2.16 0,1.87 0.1,1.58 0.16,1.27 0.16,0.94 0.16,0.61 0.1,0.29 0,0 M 0.97,2.24 C 0.8,2.64 0.58,3 0.29,3.31 0.01,3.61 -0.34,3.85 -0.73,4.03 -1.45,4.35 -2.36,4.38 -3.09,4.11 -3.42,4 -3.71,3.85 -3.96,3.67 -4.17,3.53 -4.35,3.38 -4.5,3.22 l 0,2.54 c 0,0.13 -0.05,0.25 -0.15,0.35 -0.19,0.2 -0.51,0.2 -0.71,0 -0.1,-0.1 -0.15,-0.22 -0.15,-0.35 l 0,-7.78 c 0,-0.23 0.16,-0.39 0.39,-0.39 0.14,0 0.38,0.05 0.51,0.37 0.07,0.16 0.1,0.38 0.11,0.67 0.18,-0.19 0.39,-0.36 0.63,-0.51 0.26,-0.17 0.55,-0.3 0.86,-0.4 0.32,-0.09 0.65,-0.14 0.99,-0.14 0.46,0 0.89,0.09 1.29,0.26 0.39,0.18 0.74,0.42 1.02,0.73 0.29,0.3 0.51,0.66 0.68,1.07 0.16,0.4 0.24,0.84 0.24,1.3 0,0.45 -0.08,0.89 -0.24,1.3"
         style="fill:#2e2b2b;fill-opacity:1;fill-rule:nonzero;stroke:none"
         id="path3659"
         inkscape:connector-curvature="0" /></g><g
       id="g3661"
       transform="translate(162.6784,169.4102)"><path
         d="m 0,0 c -0.03,-0.17 -0.1,-0.29 -0.21,-0.36 -0.1,-0.08 -0.23,-0.12 -0.37,-0.1 -0.14,0.01 -0.27,0.04 -0.39,0.1 -0.05,0.02 -0.13,0.04 -0.22,0.04 -0.29,0 -0.57,-0.07 -0.83,-0.19 -0.27,-0.13 -0.51,-0.3 -0.71,-0.52 C -2.94,-1.25 -3.1,-1.5 -3.22,-1.8 -3.34,-2.08 -3.4,-2.39 -3.4,-2.71 l 0,-2.8 c 0,-0.14 -0.05,-0.26 -0.14,-0.36 -0.09,-0.1 -0.22,-0.16 -0.37,-0.16 -0.15,0 -0.28,0.06 -0.37,0.16 -0.09,0.1 -0.14,0.22 -0.14,0.36 l 0,5.8 c 0,0.23 0.16,0.39 0.39,0.39 0.14,0 0.39,-0.05 0.52,-0.38 0.06,-0.14 0.1,-0.35 0.1,-0.62 0.13,0.12 0.26,0.24 0.42,0.36 0.24,0.17 0.52,0.32 0.83,0.45 0.44,0.17 0.97,0.24 1.44,0.15 C -0.59,0.62 -0.49,0.59 -0.4,0.56 -0.13,0.48 0.02,0.27 0,0"
         style="fill:#2e2b2b;fill-opacity:1;fill-rule:nonzero;stroke:none"
         id="path3663"
         inkscape:connector-curvature="0" /></g><g
       id="g3665"
       transform="translate(163.7802,167.2301)"><path
         d="M 0,0 C 0.04,0.21 0.11,0.4 0.2,0.58 0.34,0.84 0.51,1.07 0.73,1.26 0.95,1.46 1.2,1.61 1.48,1.73 2.03,1.95 2.7,1.95 3.22,1.73 3.49,1.62 3.72,1.46 3.92,1.27 4.11,1.08 4.27,0.85 4.39,0.59 4.47,0.4 4.54,0.21 4.57,0 L 0,0 Z M 5.38,0.84 C 5.22,1.24 4.99,1.6 4.69,1.9 4.4,2.2 4.06,2.44 3.66,2.61 2.86,2.95 1.88,2.95 1.05,2.64 0.63,2.48 0.26,2.25 -0.06,1.96 -0.38,1.67 -0.64,1.31 -0.82,0.9 -1.01,0.48 -1.1,0.01 -1.1,-0.5 c 0,-0.46 0.09,-0.9 0.27,-1.31 0.17,-0.4 0.41,-0.76 0.72,-1.06 0.3,-0.3 0.66,-0.54 1.06,-0.71 0.41,-0.18 0.85,-0.27 1.31,-0.27 0.27,0 0.52,0.03 0.75,0.08 0.23,0.05 0.44,0.12 0.63,0.2 0.18,0.08 0.36,0.17 0.51,0.27 0.15,0.09 0.28,0.19 0.41,0.3 0.11,0.11 0.16,0.25 0.15,0.4 -0.02,0.12 -0.06,0.23 -0.15,0.33 -0.2,0.2 -0.54,0.2 -0.74,0 -0.2,-0.19 -0.44,-0.34 -0.71,-0.45 -0.58,-0.21 -1.2,-0.2 -1.72,0.01 -0.27,0.12 -0.51,0.27 -0.71,0.46 -0.21,0.2 -0.38,0.43 -0.51,0.69 -0.09,0.18 -0.16,0.37 -0.19,0.58 l 5.11,0 c 0.2,0 0.33,0.08 0.39,0.15 0.1,0.09 0.15,0.22 0.15,0.35 0,0.47 -0.08,0.91 -0.25,1.32"
         style="fill:#2e2b2b;fill-opacity:1;fill-rule:nonzero;stroke:none"
         id="path3667"
         inkscape:connector-curvature="0" /></g><g
       id="g3669"
       transform="translate(170.7302,171.4702)"><path
         d="m 0,0 0,-7.58 c 0,-0.14 -0.05,-0.26 -0.15,-0.36 -0.1,-0.1 -0.22,-0.15 -0.36,-0.15 -0.13,0 -0.25,0.05 -0.35,0.15 -0.1,0.1 -0.15,0.22 -0.15,0.36 l 0,7.58 c 0,0.13 0.05,0.25 0.15,0.35 0.2,0.2 0.52,0.2 0.71,0.01 C -0.05,0.25 0,0.13 0,0"
         style="fill:#2e2b2b;fill-opacity:1;fill-rule:nonzero;stroke:none"
         id="path3671"
         inkscape:connector-curvature="0" /></g><g
       id="g3673"
       transform="translate(172.2502,171.4702)"><path
         d="m 0,0 0,-7.58 c 0,-0.14 -0.05,-0.26 -0.15,-0.36 -0.1,-0.1 -0.22,-0.15 -0.36,-0.15 -0.13,0 -0.25,0.05 -0.35,0.15 -0.1,0.1 -0.15,0.22 -0.15,0.36 l 0,7.58 c 0,0.13 0.05,0.25 0.15,0.35 0.2,0.2 0.51,0.2 0.71,0.01 C -0.05,0.25 0,0.13 0,0"
         style="fill:#2e2b2b;fill-opacity:1;fill-rule:nonzero;stroke:none"
         id="path3675"
         inkscape:connector-curvature="0" /></g><g
       id="g3677"
       transform="translate(178.0902,165.8102)"><path
         d="m 0,0 c -0.13,-0.29 -0.31,-0.55 -0.53,-0.77 -0.22,-0.21 -0.48,-0.39 -0.78,-0.51 -0.59,-0.25 -1.29,-0.25 -1.82,0 -0.27,0.12 -0.5,0.29 -0.69,0.5 -0.19,0.22 -0.34,0.47 -0.45,0.76 -0.1,0.29 -0.16,0.61 -0.16,0.94 0,0.33 0.06,0.64 0.16,0.93 0.11,0.29 0.26,0.55 0.45,0.76 0.19,0.22 0.42,0.39 0.69,0.51 0.26,0.12 0.56,0.18 0.88,0.18 0.32,0 0.63,-0.06 0.92,-0.19 0.29,-0.13 0.56,-0.3 0.78,-0.52 C -0.32,2.37 -0.14,2.11 0,1.82 0.13,1.53 0.2,1.23 0.2,0.92 0.2,0.6 0.13,0.29 0,0 M 0.85,4.26 C 0.71,4.26 0.47,4.22 0.33,3.89 0.27,3.73 0.23,3.5 0.23,3.2 0.08,3.35 -0.1,3.51 -0.31,3.65 -0.56,3.83 -0.86,3.98 -1.18,4.09 -1.91,4.36 -2.82,4.33 -3.54,4.01 -3.93,3.83 -4.28,3.59 -4.56,3.29 -4.85,2.98 -5.08,2.62 -5.24,2.22 -5.4,1.81 -5.48,1.38 -5.48,0.92 c 0,-0.46 0.08,-0.9 0.24,-1.3 0.16,-0.41 0.39,-0.77 0.68,-1.07 0.28,-0.31 0.63,-0.55 1.02,-0.73 0.4,-0.17 0.83,-0.26 1.29,-0.26 0.34,0 0.68,0.05 1,0.15 0.31,0.1 0.6,0.24 0.86,0.4 0.23,0.15 0.44,0.32 0.62,0.51 0.01,-0.3 0.04,-0.52 0.1,-0.68 0.14,-0.32 0.38,-0.37 0.52,-0.37 0.23,0 0.39,0.16 0.39,0.39 l 0,5.91 c 0,0.24 -0.16,0.39 -0.39,0.39"
         style="fill:#2e2b2b;fill-opacity:1;fill-rule:nonzero;stroke:none"
         id="path3679"
         inkscape:connector-curvature="0" /></g><g
       id="g3741"
       transform="translate(145.5572,186.05)"><path
         d="m 0,0 c 0,-2.981 -2.478,-5.344 -5.452,-5.344 -2.989,0 -5.418,2.404 -5.453,5.385 0,0.823 0.665,1.487 1.488,1.487 0.82,0 1.487,-0.664 1.487,-1.487 0,-1.672 1.208,-2.492 2.478,-2.492 1.269,0 2.463,0.904 2.463,2.451 l 0.009,4.353 c 0,0.82 0.664,1.485 1.487,1.485 0.82,0 1.487,-0.665 1.487,-1.485 L 0,0 Z"
         style="fill:#e3ca1a;fill-opacity:1;fill-rule:nonzero;stroke:none"
         id="path3743"
         inkscape:connector-curvature="0" /></g><g
       id="g3745"
       transform="translate(153.4526,191.9064)"><path
         d="m 0,0 0,-0.018 c 0,-0.821 -0.667,-1.486 -1.487,-1.486 -0.821,0 -1.487,0.665 -1.487,1.486 l 0,0.018 c 0,3.549 -2.878,6.425 -6.427,6.425 -3.549,0 -6.425,-2.876 -6.425,-6.425 l 0,-0.018 c 0,-0.821 -0.666,-1.486 -1.487,-1.486 -0.822,0 -1.487,0.665 -1.487,1.486 l 0,0.018 c 0,5.192 4.207,9.401 9.399,9.401 C -4.207,9.401 0,5.192 0,0"
         style="fill:#e3ca1a;fill-opacity:1;fill-rule:nonzero;stroke:none"
         id="path3747"
         inkscape:connector-curvature="0" /></g></g></svg>